<?xml version="1.0"?>
<svg xmlns="http://www.w3.org/2000/svg" height="512px" viewBox="-25 0 512 512" width="512px" class=""><g><path d="m363.359375 309.992188v183.683593c0 5.980469-4.847656 10.824219-10.824219 10.824219h-245.296875c-5.976562 0-10.824219-4.84375-10.824219-10.824219v-183.679687l-78.527343-22.769532c-6.957031-2.019531-11.335938-8.894531-10.214844-16.054687l13.695313-87.65625c2.222656-14.234375 11.804687-26.234375 25.195312-31.550781l103.792969-41.210938h162.15625l57.433593 22.804688 27.996094 11.113281 18.363282 7.292969c13.390624 5.320312 22.972656 17.316406 25.195312 31.550781l13.699219 87.65625c1.117187 7.160156-3.257813 14.035156-10.21875 16.054687zm0 0" fill="#68a1d7" data-original="#68A1D7" class="" data-old_color="#68a1d7" style="fill:#AAABAB"/><path d="m343.285156 255.933594c-13.992187 3.902344-23.671875 16.652344-23.671875 31.179687v206.5625c0 5.980469-4.847656 10.824219-10.824219 10.824219h43.746094c5.976563 0 10.824219-4.84375 10.824219-10.824219v-243.339843zm0 0" fill="#5d8fbf" data-original="#5D8FBF" class="" data-old_color="#5d8fbf" style="fill:#8D8D8D"/><path d="m455.199219 271.171875-13.695313-87.65625c-2.226562-14.234375-11.808594-26.234375-25.195312-31.550781l-18.367188-7.292969-27.996094-11.113281-57.433593-22.804688h-43.746094l57.433594 22.804688 27.996093 11.113281 18.367188 7.292969c13.386719 5.320312 22.96875 17.316406 25.191406 31.550781l13.699219 87.65625c1.117187 7.160156-3.257813 14.035156-10.21875 16.054687l-37.875 10.5625v12.203126l81.621094-22.765626c6.960937-2.019531 11.335937-8.894531 10.21875-16.054687zm0 0" fill="#5d8fbf" data-original="#5D8FBF" class="" data-old_color="#5d8fbf" style="fill:#8D8D8D"/><g fill="#addff5"><path d="m452.121094 254.347656-85.664063 23.570313v33.738281l78.503907-24.644531c7.269531-2.28125 11.660156-9.664063 10.195312-17.140625zm0 0" data-original="#ADDFF5" class="" style="fill:#666666" data-old_color="#ADDFF5"/><path d="m10.816406 254.347656 85.664063 23.570313v33.738281l-78.507813-24.644531c-7.265625-2.28125-11.65625-9.664063-10.195312-17.140625zm0 0" data-original="#ADDFF5" class="" style="fill:#666666" data-old_color="#ADDFF5"/><path d="m352.109375 504.5h-244.445313c-6.214843 0-11.25-5.035156-11.25-11.246094v-30.605468h266.945313v30.605468c0 6.210938-5.035156 11.246094-11.25 11.246094zm0 0" data-original="#ADDFF5" class="" style="fill:#666666" data-old_color="#ADDFF5"/></g><path d="m229.886719 157.847656 64.75-70.644531h-129.5zm0 0" fill="#365e80" data-original="#365E80" class="" data-old_color="#365e80" style="fill:#8A8B8B"/><path d="m165.136719 87.203125 64.75 70.644531-26.617188 16.167969-56.007812-66.964844zm0 0" fill="#addff5" data-original="#ADDFF5" class="" style="fill:#666666" data-old_color="#addff5"/><path d="m294.636719 87.203125-64.75 70.644531 26.617187 16.167969 56.007813-66.964844zm0 0" fill="#addff5" data-original="#ADDFF5" class="" style="fill:#666666" data-old_color="#addff5"/><path d="m88.917969 362.347656c0 4.144532 3.355469 7.5 7.496093 7.5 4.144532 0 7.5-3.355468 7.5-7.5 0-24.804687 0-101.605468 0-125.726562 0-4.144532-3.355468-7.5-7.5-7.5-4.140624 0-7.496093 3.355468-7.496093 7.5v31.457031l-70.15625-19.304687 10.015625-64.101563c1.804687-11.558594 9.679687-21.417969 20.554687-25.734375l98.753907-39.214844 49.429687 59.105469c2.390625 2.855469 6.496094 3.511719 9.644531 1.597656l15.226563-9.25v80.289063c0 4.144531 3.359375 7.5 7.5 7.5 4.144531 0 7.5-3.355469 7.5-7.5v-80.289063l15.226562 9.25c3.144531 1.910157 7.25 1.261719 9.644531-1.597656l50.203126-60.027344c56.765624 22.339844 54.796874 22.257813 57.480468 22.257813 8.253906 0 10.390625-11.445313 2.769532-14.472656l-52.839844-20.980469c-.253906-1.292969-.851563-2.53125-1.789063-3.574219-19.140625-21.234375-17.90625-19.925781-18.429687-20.398438-3.773438-3.355468-2.820313-1.328124-60.71875-1.925781v-7.539062c16.523437-3.464844 28.972656-18.152344 28.972656-35.695313 0-20.113281-16.359375-36.472656-36.472656-36.472656-20.109375 0-36.472656 16.359375-36.472656 36.472656 0 4.140625 3.359374 7.5 7.5 7.5 4.140624 0 7.5-3.359375 7.5-7.5 0-11.84375 9.632812-21.476562 21.472656-21.476562 11.84375 0 21.476562 9.636718 21.476562 21.476562s-9.632812 21.476563-21.476562 21.476563c-4.140625 0-7.496094 3.355469-7.496094 7.496093v14.261719c-59.769531 0-59.910156-1.105469-63.359375 1.542969-.863281.664062 0-.167969-18.886719 20.78125-1.246094 1.382812-1.886718 3.113281-1.925781 4.859375l-95.96875 38.105469c-15.785156 6.269531-27.21875 20.582031-29.835937 37.359375l-13.699219 87.65625c-1.695313 10.859375 4.984375 21.355469 15.539062 24.417969l73.117188 21.199218zm140.96875-215.597656-26.863281-29.308594 28.410156-22.089844 26.605468 20.683594c-10.195312 11.121094-22.484374 24.53125-28.152343 30.714844zm25.003906 17.511719-13.304687-8.082031c11.988281-13.078126 42.417968-46.277344 53.003906-57.824219l7.996094 8.878906zm13.3125-59.316407-13.167969-10.242187h22.554688zm-60.367187-10.242187-14.976563 11.648437-10.675781-11.648437zm-42.648438 3.652344c12.878906 14.054687 44.5 48.550781 53 57.824219l-13.304688 8.082031-47.691406-57.027344zm-145.210938 181.667969c-3.324218-.964844-5.429687-4.273438-4.894531-7.695313l1.351563-8.640625 72.484375 19.945312v16.378907zm0 0" data-original="#000000" class="active-path" style="fill:#2C2C2C" data-old_color="#000000"/><path d="m462.605469 270.011719-13.695313-87.65625c-2.621094-16.777344-14.054687-31.09375-29.835937-37.359375l-18.367188-7.292969c-3.847656-1.527344-8.207031.355469-9.734375 4.203125-1.53125 3.847656.351563 8.207031 4.199219 9.734375l18.367187 7.296875c10.871094 4.316406 18.746094 14.175781 20.554688 25.734375l10.015625 64.101563-73.25 20.15625v-32.308594c0-4.144532-3.355469-7.5-7.5-7.5-4.140625 0-7.5 3.355468-7.5 7.5v218.527344h-251.945313v-64.804688c0-4.144531-3.355468-7.5-7.5-7.5-4.140624 0-7.496093 3.355469-7.496093 7.5v103.332031c0 10.105469 8.21875 18.324219 18.320312 18.324219h245.296875c10.101563 0 18.324219-8.21875 18.324219-18.324219v-177.152343l76.207031-22.09375c10.558594-3.0625 17.238282-13.558594 15.539063-24.417969zm-354.941407 226.992187c-2.066406 0-3.75-1.683594-3.75-3.75v-23.105468h251.945313v23.105468c0 2.066406-1.683594 3.746094-3.75 3.746094h-244.445313zm335.226563-216.980468-72.03125 20.886718v-16.425781l75.578125-20.796875 1.351562 8.640625c.535157 3.421875-1.570312 6.730469-4.898437 7.695313zm0 0" data-original="#000000" class="active-path" style="fill:#2C2C2C" data-old_color="#000000"/></g> </svg>
